<svg width="130" height="130" viewBox="0 0 130 130" fill="none" xmlns="http://www.w3.org/2000/svg">
<path d="M0.185181 0.185181H5.37037V5.37037H0.185181V0.185181ZM5.37037 0.185181H10.5556V5.37037H5.37037V0.185181ZM10.5556 0.185181H15.7407V5.37037H10.5556V0.185181ZM15.7407 0.185181H20.9259V5.37037H15.7407V0.185181ZM20.9259 0.185181H26.1111V5.37037H20.9259V0.185181ZM26.1111 0.185181H31.2963V5.37037H26.1111V0.185181ZM31.2963 0.185181H36.4815V5.37037H31.2963V0.185181ZM46.8518 0.185181H52.037V5.37037H46.8518V0.185181ZM67.5926 0.185181H72.7778V5.37037H67.5926V0.185181ZM83.1481 0.185181H88.3333V5.37037H83.1481V0.185181ZM93.5185 0.185181H98.7037V5.37037H93.5185V0.185181ZM98.7037 0.185181H103.889V5.37037H98.7037V0.185181ZM103.889 0.185181H109.074V5.37037H103.889V0.185181ZM109.074 0.185181H114.259V5.37037H109.074V0.185181ZM114.259 0.185181H119.444V5.37037H114.259V0.185181ZM119.444 0.185181H124.63V5.37037H119.444V0.185181ZM124.63 0.185181H129.815V5.37037H124.63V0.185181ZM0.185181 5.37037H5.37037V10.5556H0.185181V5.37037ZM31.2963 5.37037H36.4815V10.5556H31.2963V5.37037ZM41.6667 5.37037H46.8518V10.5556H41.6667V5.37037ZM46.8518 5.37037H52.037V10.5556H46.8518V5.37037ZM57.2222 5.37037H62.4074V10.5556H57.2222V5.37037ZM62.4074 5.37037H67.5926V10.5556H62.4074V5.37037ZM72.7778 5.37037H77.963V10.5556H72.7778V5.37037ZM77.963 5.37037H83.1481V10.5556H77.963V5.37037ZM83.1481 5.37037H88.3333V10.5556H83.1481V5.37037ZM93.5185 5.37037H98.7037V10.5556H93.5185V5.37037ZM124.63 5.37037H129.815V10.5556H124.63V5.37037ZM0.185181 10.5556H5.37037V15.7407H0.185181V10.5556ZM10.5556 10.5556H15.7407V15.7407H10.5556V10.5556ZM15.7407 10.5556H20.9259V15.7407H15.7407V10.5556ZM20.9259 10.5556H26.1111V15.7407H20.9259V10.5556ZM31.2963 10.5556H36.4815V15.7407H31.2963V10.5556ZM46.8518 10.5556H52.037V15.7407H46.8518V10.5556ZM52.037 10.5556H57.2222V15.7407H52.037V10.5556ZM57.2222 10.5556H62.4074V15.7407H57.2222V10.5556ZM72.7778 10.5556H77.963V15.7407H72.7778V10.5556ZM83.1481 10.5556H88.3333V15.7407H83.1481V10.5556ZM93.5185 10.5556H98.7037V15.7407H93.5185V10.5556ZM103.889 10.5556H109.074V15.7407H103.889V10.5556ZM109.074 10.5556H114.259V15.7407H109.074V10.5556ZM114.259 10.5556H119.444V15.7407H114.259V10.5556ZM124.63 10.5556H129.815V15.7407H124.63V10.5556ZM0.185181 15.7407H5.37037V20.9259H0.185181V15.7407ZM10.5556 15.7407H15.7407V20.9259H10.5556V15.7407ZM15.7407 15.7407H20.9259V20.9259H15.7407V15.7407ZM20.9259 15.7407H26.1111V20.9259H20.9259V15.7407ZM31.2963 15.7407H36.4815V20.9259H31.2963V15.7407ZM41.6667 15.7407H46.8518V20.9259H41.6667V15.7407ZM46.8518 15.7407H52.037V20.9259H46.8518V15.7407ZM57.2222 15.7407H62.4074V20.9259H57.2222V15.7407ZM67.5926 15.7407H72.7778V20.9259H67.5926V15.7407ZM93.5185 15.7407H98.7037V20.9259H93.5185V15.7407ZM103.889 15.7407H109.074V20.9259H103.889V15.7407ZM109.074 15.7407H114.259V20.9259H109.074V15.7407ZM114.259 15.7407H119.444V20.9259H114.259V15.7407ZM124.63 15.7407H129.815V20.9259H124.63V15.7407ZM0.185181 20.9259H5.37037V26.1111H0.185181V20.9259ZM10.5556 20.9259H15.7407V26.1111H10.5556V20.9259ZM15.7407 20.9259H20.9259V26.1111H15.7407V20.9259ZM20.9259 20.9259H26.1111V26.1111H20.9259V20.9259ZM31.2963 20.9259H36.4815V26.1111H31.2963V20.9259ZM52.037 20.9259H57.2222V26.1111H52.037V20.9259ZM62.4074 20.9259H67.5926V26.1111H62.4074V20.9259ZM67.5926 20.9259H72.7778V26.1111H67.5926V20.9259ZM83.1481 20.9259H88.3333V26.1111H83.1481V20.9259ZM93.5185 20.9259H98.7037V26.1111H93.5185V20.9259ZM103.889 20.9259H109.074V26.1111H103.889V20.9259ZM109.074 20.9259H114.259V26.1111H109.074V20.9259ZM114.259 20.9259H119.444V26.1111H114.259V20.9259ZM124.63 20.9259H129.815V26.1111H124.63V20.9259ZM0.185181 26.1111H5.37037V31.2963H0.185181V26.1111ZM31.2963 26.1111H36.4815V31.2963H31.2963V26.1111ZM41.6667 26.1111H46.8518V31.2963H41.6667V26.1111ZM52.037 26.1111H57.2222V31.2963H52.037V26.1111ZM67.5926 26.1111H72.7778V31.2963H67.5926V26.1111ZM72.7778 26.1111H77.963V31.2963H72.7778V26.1111ZM77.963 26.1111H83.1481V31.2963H77.963V26.1111ZM83.1481 26.1111H88.3333V31.2963H83.1481V26.1111ZM93.5185 26.1111H98.7037V31.2963H93.5185V26.1111ZM124.63 26.1111H129.815V31.2963H124.63V26.1111ZM0.185181 31.2963H5.37037V36.4815H0.185181V31.2963ZM5.37037 31.2963H10.5556V36.4815H5.37037V31.2963ZM10.5556 31.2963H15.7407V36.4815H10.5556V31.2963ZM15.7407 31.2963H20.9259V36.4815H15.7407V31.2963ZM20.9259 31.2963H26.1111V36.4815H20.9259V31.2963ZM26.1111 31.2963H31.2963V36.4815H26.1111V31.2963ZM31.2963 31.2963H36.4815V36.4815H31.2963V31.2963ZM41.6667 31.2963H46.8518V36.4815H41.6667V31.2963ZM52.037 31.2963H57.2222V36.4815H52.037V31.2963ZM62.4074 31.2963H67.5926V36.4815H62.4074V31.2963ZM72.7778 31.2963H77.963V36.4815H72.7778V31.2963ZM83.1481 31.2963H88.3333V36.4815H83.1481V31.2963ZM93.5185 31.2963H98.7037V36.4815H93.5185V31.2963ZM98.7037 31.2963H103.889V36.4815H98.7037V31.2963ZM103.889 31.2963H109.074V36.4815H103.889V31.2963ZM109.074 31.2963H114.259V36.4815H109.074V31.2963ZM114.259 31.2963H119.444V36.4815H114.259V31.2963ZM119.444 31.2963H124.63V36.4815H119.444V31.2963ZM124.63 31.2963H129.815V36.4815H124.63V31.2963ZM62.4074 36.4815H67.5926V41.6667H62.4074V36.4815ZM72.7778 36.4815H77.963V41.6667H72.7778V36.4815ZM0.185181 41.6667H5.37037V46.8518H0.185181V41.6667ZM5.37037 41.6667H10.5556V46.8518H5.37037V41.6667ZM10.5556 41.6667H15.7407V46.8518H10.5556V41.6667ZM15.7407 41.6667H20.9259V46.8518H15.7407V41.6667ZM20.9259 41.6667H26.1111V46.8518H20.9259V41.6667ZM31.2963 41.6667H36.4815V46.8518H31.2963V41.6667ZM36.4815 41.6667H41.6667V46.8518H36.4815V41.6667ZM41.6667 41.6667H46.8518V46.8518H41.6667V41.6667ZM46.8518 41.6667H52.037V46.8518H46.8518V41.6667ZM52.037 41.6667H57.2222V46.8518H52.037V41.6667ZM62.4074 41.6667H67.5926V46.8518H62.4074V41.6667ZM67.5926 41.6667H72.7778V46.8518H67.5926V41.6667ZM72.7778 41.6667H77.963V46.8518H72.7778V41.6667ZM77.963 41.6667H83.1481V46.8518H77.963V41.6667ZM88.3333 41.6667H93.5185V46.8518H88.3333V41.6667ZM98.7037 41.6667H103.889V46.8518H98.7037V41.6667ZM109.074 41.6667H114.259V46.8518H109.074V41.6667ZM119.444 41.6667H124.63V46.8518H119.444V41.6667ZM0.185181 46.8518H5.37037V52.037H0.185181V46.8518ZM10.5556 46.8518H15.7407V52.037H10.5556V46.8518ZM15.7407 46.8518H20.9259V52.037H15.7407V46.8518ZM46.8518 46.8518H52.037V52.037H46.8518V46.8518ZM67.5926 46.8518H72.7778V52.037H67.5926V46.8518ZM83.1481 46.8518H88.3333V52.037H83.1481V46.8518ZM98.7037 46.8518H103.889V52.037H98.7037V46.8518ZM119.444 46.8518H124.63V52.037H119.444V46.8518ZM0.185181 52.037H5.37037V57.2222H0.185181V52.037ZM20.9259 52.037H26.1111V57.2222H20.9259V52.037ZM26.1111 52.037H31.2963V57.2222H26.1111V52.037ZM31.2963 52.037H36.4815V57.2222H31.2963V52.037ZM41.6667 52.037H46.8518V57.2222H41.6667V52.037ZM46.8518 52.037H52.037V57.2222H46.8518V52.037ZM57.2222 52.037H62.4074V57.2222H57.2222V52.037ZM62.4074 52.037H67.5926V57.2222H62.4074V52.037ZM72.7778 52.037H77.963V57.2222H72.7778V52.037ZM77.963 52.037H83.1481V57.2222H77.963V52.037ZM98.7037 52.037H103.889V57.2222H98.7037V52.037ZM103.889 52.037H109.074V57.2222H103.889V52.037ZM109.074 52.037H114.259V57.2222H109.074V52.037ZM119.444 52.037H124.63V57.2222H119.444V52.037ZM124.63 52.037H129.815V57.2222H124.63V52.037ZM5.37037 57.2222H10.5556V62.4074H5.37037V57.2222ZM10.5556 57.2222H15.7407V62.4074H10.5556V57.2222ZM15.7407 57.2222H20.9259V62.4074H15.7407V57.2222ZM20.9259 57.2222H26.1111V62.4074H20.9259V57.2222ZM26.1111 57.2222H31.2963V62.4074H26.1111V57.2222ZM36.4815 57.2222H41.6667V62.4074H36.4815V57.2222ZM46.8518 57.2222H52.037V62.4074H46.8518V57.2222ZM52.037 57.2222H57.2222V62.4074H52.037V57.2222ZM57.2222 57.2222H62.4074V62.4074H57.2222V57.2222ZM72.7778 57.2222H77.963V62.4074H72.7778V57.2222ZM83.1481 57.2222H88.3333V62.4074H83.1481V57.2222ZM88.3333 57.2222H93.5185V62.4074H88.3333V57.2222ZM93.5185 57.2222H98.7037V62.4074H93.5185V57.2222ZM98.7037 57.2222H103.889V62.4074H98.7037V57.2222ZM124.63 57.2222H129.815V62.4074H124.63V57.2222ZM5.37037 62.4074H10.5556V67.5926H5.37037V62.4074ZM10.5556 62.4074H15.7407V67.5926H10.5556V62.4074ZM26.1111 62.4074H31.2963V67.5926H26.1111V62.4074ZM31.2963 62.4074H36.4815V67.5926H31.2963V62.4074ZM46.8518 62.4074H52.037V67.5926H46.8518V62.4074ZM57.2222 62.4074H62.4074V67.5926H57.2222V62.4074ZM62.4074 62.4074H67.5926V67.5926H62.4074V62.4074ZM67.5926 62.4074H72.7778V67.5926H67.5926V62.4074ZM72.7778 62.4074H77.963V67.5926H72.7778V62.4074ZM88.3333 62.4074H93.5185V67.5926H88.3333V62.4074ZM93.5185 62.4074H98.7037V67.5926H93.5185V62.4074ZM103.889 62.4074H109.074V67.5926H103.889V62.4074ZM114.259 62.4074H119.444V67.5926H114.259V62.4074ZM119.444 62.4074H124.63V67.5926H119.444V62.4074ZM124.63 62.4074H129.815V67.5926H124.63V62.4074ZM0.185181 67.5926H5.37037V72.7778H0.185181V67.5926ZM10.5556 67.5926H15.7407V72.7778H10.5556V67.5926ZM15.7407 67.5926H20.9259V72.7778H15.7407V67.5926ZM26.1111 67.5926H31.2963V72.7778H26.1111V67.5926ZM52.037 67.5926H57.2222V72.7778H52.037V67.5926ZM62.4074 67.5926H67.5926V72.7778H62.4074V67.5926ZM88.3333 67.5926H93.5185V72.7778H88.3333V67.5926ZM98.7037 67.5926H103.889V72.7778H98.7037V67.5926ZM109.074 67.5926H114.259V72.7778H109.074V67.5926ZM119.444 67.5926H124.63V72.7778H119.444V67.5926ZM0.185181 72.7778H5.37037V77.963H0.185181V72.7778ZM15.7407 72.7778H20.9259V77.963H15.7407V72.7778ZM20.9259 72.7778H26.1111V77.963H20.9259V72.7778ZM26.1111 72.7778H31.2963V77.963H26.1111V72.7778ZM31.2963 72.7778H36.4815V77.963H31.2963V72.7778ZM46.8518 72.7778H52.037V77.963H46.8518V72.7778ZM52.037 72.7778H57.2222V77.963H52.037V72.7778ZM77.963 72.7778H83.1481V77.963H77.963V72.7778ZM88.3333 72.7778H93.5185V77.963H88.3333V72.7778ZM93.5185 72.7778H98.7037V77.963H93.5185V72.7778ZM98.7037 72.7778H103.889V77.963H98.7037V72.7778ZM103.889 72.7778H109.074V77.963H103.889V72.7778ZM109.074 72.7778H114.259V77.963H109.074V72.7778ZM119.444 72.7778H124.63V77.963H119.444V72.7778ZM124.63 72.7778H129.815V77.963H124.63V72.7778ZM0.185181 77.963H5.37037V83.1481H0.185181V77.963ZM20.9259 77.963H26.1111V83.1481H20.9259V77.963ZM62.4074 77.963H67.5926V83.1481H62.4074V77.963ZM72.7778 77.963H77.963V83.1481H72.7778V77.963ZM93.5185 77.963H98.7037V83.1481H93.5185V77.963ZM98.7037 77.963H103.889V83.1481H98.7037V77.963ZM103.889 77.963H109.074V83.1481H103.889V77.963ZM124.63 77.963H129.815V83.1481H124.63V77.963ZM0.185181 83.1481H5.37037V88.3333H0.185181V83.1481ZM20.9259 83.1481H26.1111V88.3333H20.9259V83.1481ZM26.1111 83.1481H31.2963V88.3333H26.1111V83.1481ZM31.2963 83.1481H36.4815V88.3333H31.2963V83.1481ZM36.4815 83.1481H41.6667V88.3333H36.4815V83.1481ZM46.8518 83.1481H52.037V88.3333H46.8518V83.1481ZM57.2222 83.1481H62.4074V88.3333H57.2222V83.1481ZM62.4074 83.1481H67.5926V88.3333H62.4074V83.1481ZM67.5926 83.1481H72.7778V88.3333H67.5926V83.1481ZM72.7778 83.1481H77.963V88.3333H72.7778V83.1481ZM77.963 83.1481H83.1481V88.3333H77.963V83.1481ZM83.1481 83.1481H88.3333V88.3333H83.1481V83.1481ZM88.3333 83.1481H93.5185V88.3333H88.3333V83.1481ZM93.5185 83.1481H98.7037V88.3333H93.5185V83.1481ZM98.7037 83.1481H103.889V88.3333H98.7037V83.1481ZM103.889 83.1481H109.074V88.3333H103.889V83.1481ZM114.259 83.1481H119.444V88.3333H114.259V83.1481ZM41.6667 88.3333H46.8518V93.5185H41.6667V88.3333ZM57.2222 88.3333H62.4074V93.5185H57.2222V88.3333ZM72.7778 88.3333H77.963V93.5185H72.7778V88.3333ZM77.963 88.3333H83.1481V93.5185H77.963V88.3333ZM83.1481 88.3333H88.3333V93.5185H83.1481V88.3333ZM103.889 88.3333H109.074V93.5185H103.889V88.3333ZM109.074 88.3333H114.259V93.5185H109.074V88.3333ZM0.185181 93.5185H5.37037V98.7037H0.185181V93.5185ZM5.37037 93.5185H10.5556V98.7037H5.37037V93.5185ZM10.5556 93.5185H15.7407V98.7037H10.5556V93.5185ZM15.7407 93.5185H20.9259V98.7037H15.7407V93.5185ZM20.9259 93.5185H26.1111V98.7037H20.9259V93.5185ZM26.1111 93.5185H31.2963V98.7037H26.1111V93.5185ZM31.2963 93.5185H36.4815V98.7037H31.2963V93.5185ZM41.6667 93.5185H46.8518V98.7037H41.6667V93.5185ZM52.037 93.5185H57.2222V98.7037H52.037V93.5185ZM67.5926 93.5185H72.7778V98.7037H67.5926V93.5185ZM72.7778 93.5185H77.963V98.7037H72.7778V93.5185ZM83.1481 93.5185H88.3333V98.7037H83.1481V93.5185ZM93.5185 93.5185H98.7037V98.7037H93.5185V93.5185ZM103.889 93.5185H109.074V98.7037H103.889V93.5185ZM114.259 93.5185H119.444V98.7037H114.259V93.5185ZM119.444 93.5185H124.63V98.7037H119.444V93.5185ZM124.63 93.5185H129.815V98.7037H124.63V93.5185ZM0.185181 98.7037H5.37037V103.889H0.185181V98.7037ZM31.2963 98.7037H36.4815V103.889H31.2963V98.7037ZM46.8518 98.7037H52.037V103.889H46.8518V98.7037ZM52.037 98.7037H57.2222V103.889H52.037V98.7037ZM62.4074 98.7037H67.5926V103.889H62.4074V98.7037ZM83.1481 98.7037H88.3333V103.889H83.1481V98.7037ZM103.889 98.7037H109.074V103.889H103.889V98.7037ZM109.074 98.7037H114.259V103.889H109.074V98.7037ZM0.185181 103.889H5.37037V109.074H0.185181V103.889ZM10.5556 103.889H15.7407V109.074H10.5556V103.889ZM15.7407 103.889H20.9259V109.074H15.7407V103.889ZM20.9259 103.889H26.1111V109.074H20.9259V103.889ZM31.2963 103.889H36.4815V109.074H31.2963V103.889ZM41.6667 103.889H46.8518V109.074H41.6667V103.889ZM46.8518 103.889H52.037V109.074H46.8518V103.889ZM57.2222 103.889H62.4074V109.074H57.2222V103.889ZM62.4074 103.889H67.5926V109.074H62.4074V103.889ZM67.5926 103.889H72.7778V109.074H67.5926V103.889ZM72.7778 103.889H77.963V109.074H72.7778V103.889ZM77.963 103.889H83.1481V109.074H77.963V103.889ZM83.1481 103.889H88.3333V109.074H83.1481V103.889ZM88.3333 103.889H93.5185V109.074H88.3333V103.889ZM93.5185 103.889H98.7037V109.074H93.5185V103.889ZM98.7037 103.889H103.889V109.074H98.7037V103.889ZM103.889 103.889H109.074V109.074H103.889V103.889ZM114.259 103.889H119.444V109.074H114.259V103.889ZM0.185181 109.074H5.37037V114.259H0.185181V109.074ZM10.5556 109.074H15.7407V114.259H10.5556V109.074ZM15.7407 109.074H20.9259V114.259H15.7407V109.074ZM20.9259 109.074H26.1111V114.259H20.9259V109.074ZM31.2963 109.074H36.4815V114.259H31.2963V109.074ZM41.6667 109.074H46.8518V114.259H41.6667V109.074ZM52.037 109.074H57.2222V114.259H52.037V109.074ZM57.2222 109.074H62.4074V114.259H57.2222V109.074ZM67.5926 109.074H72.7778V114.259H67.5926V109.074ZM88.3333 109.074H93.5185V114.259H88.3333V109.074ZM93.5185 109.074H98.7037V114.259H93.5185V109.074ZM103.889 109.074H109.074V114.259H103.889V109.074ZM109.074 109.074H114.259V114.259H109.074V109.074ZM114.259 109.074H119.444V114.259H114.259V109.074ZM119.444 109.074H124.63V114.259H119.444V109.074ZM124.63 109.074H129.815V114.259H124.63V109.074ZM0.185181 114.259H5.37037V119.444H0.185181V114.259ZM10.5556 114.259H15.7407V119.444H10.5556V114.259ZM15.7407 114.259H20.9259V119.444H15.7407V114.259ZM20.9259 114.259H26.1111V119.444H20.9259V114.259ZM31.2963 114.259H36.4815V119.444H31.2963V114.259ZM41.6667 114.259H46.8518V119.444H41.6667V114.259ZM52.037 114.259H57.2222V119.444H52.037V114.259ZM62.4074 114.259H67.5926V119.444H62.4074V114.259ZM109.074 114.259H114.259V119.444H109.074V114.259ZM114.259 114.259H119.444V119.444H114.259V114.259ZM124.63 114.259H129.815V119.444H124.63V114.259ZM0.185181 119.444H5.37037V124.63H0.185181V119.444ZM31.2963 119.444H36.4815V124.63H31.2963V119.444ZM41.6667 119.444H46.8518V124.63H41.6667V119.444ZM52.037 119.444H57.2222V124.63H52.037V119.444ZM57.2222 119.444H62.4074V124.63H57.2222V119.444ZM72.7778 119.444H77.963V124.63H72.7778V119.444ZM83.1481 119.444H88.3333V124.63H83.1481V119.444ZM98.7037 119.444H103.889V124.63H98.7037V119.444ZM103.889 119.444H109.074V124.63H103.889V119.444ZM109.074 119.444H114.259V124.63H109.074V119.444ZM124.63 119.444H129.815V124.63H124.63V119.444ZM0.185181 124.63H5.37037V129.815H0.185181V124.63ZM5.37037 124.63H10.5556V129.815H5.37037V124.63ZM10.5556 124.63H15.7407V129.815H10.5556V124.63ZM15.7407 124.63H20.9259V129.815H15.7407V124.63ZM20.9259 124.63H26.1111V129.815H20.9259V124.63ZM26.1111 124.63H31.2963V129.815H26.1111V124.63ZM31.2963 124.63H36.4815V129.815H31.2963V124.63ZM41.6667 124.63H46.8518V129.815H41.6667V124.63ZM46.8518 124.63H52.037V129.815H46.8518V124.63ZM52.037 124.63H57.2222V129.815H52.037V124.63ZM57.2222 124.63H62.4074V129.815H57.2222V124.63ZM62.4074 124.63H67.5926V129.815H62.4074V124.63ZM67.5926 124.63H72.7778V129.815H67.5926V124.63ZM72.7778 124.63H77.963V129.815H72.7778V124.63ZM93.5185 124.63H98.7037V129.815H93.5185V124.63ZM98.7037 124.63H103.889V129.815H98.7037V124.63ZM103.889 124.63H109.074V129.815H103.889V124.63ZM109.074 124.63H114.259V129.815H109.074V124.63ZM114.259 124.63H119.444V129.815H114.259V124.63ZM119.444 124.63H124.63V129.815H119.444V124.63ZM124.63 124.63H129.815V129.815H124.63V124.63Z" fill="black"/>
</svg>
